<?xml version="1.0" encoding="UTF-8"?>
<svg id="Layer_1" data-name="Layer 1" xmlns="http://www.w3.org/2000/svg" viewBox="0 0 445.97 312.1">
  <path d="M238.52,263.2c-7.73,20.15-25.99,36.96-46.32,44.17-41.81,14.84-86.61-6.47-102.48-47.3-.89-.55-10.16,1.15-12.23,1.24-27.54,1.18-54.34-14.1-67.71-37.93-20.27-36.13-7.98-81.29,27.08-102.57-15.28-37.52-3.99-80.34,28.7-104.24,37.86-27.69,91.59-19.83,119.96,17.17,5.1-4.64,10.16-9.05,16.07-12.66,38.73-23.64,87.51-9.07,109.63,29.42,27.36-12.59,60.34-10.56,86.32,4.47,49.42,28.6,63.6,93.92,30.49,140.7-21.68,30.62-59.91,46.16-97.03,38.77-18.21,32.07-59.03,45.24-92.48,28.75Z"/>
</svg>