<?xml version="1.0" encoding="UTF-8"?>
<svg id="Layer_1" data-name="Layer 1" xmlns="http://www.w3.org/2000/svg" viewBox="0 0 254.19 279.24">
  <path d="M128.83,158.33c-.68-4.21-3.98-7.86-8.38-7.97H8.07c-4.41.16-8.51,4.1-7.91,8.62C-.05,195.48-.05,233.7.16,270.13c-.64,5.07,4.24,8.78,8.95,9.11h110.3c4.82-.34,8.85-3.84,9.44-8.7v-112.22ZM38.02,259.59h-18.93v-61.09h18.93v61.09ZM29.51,190.12c-14.25,1.07-16.17-20.62-1.84-21.96,14.54-1.36,16.25,20.88,1.84,21.96ZM109.43,259.59h-18.93v-33.19c.31-9.27-5.98-15.77-15.33-11.73-3.49,1.51-5.99,6.65-5.99,10.3v34.62h-18.93v-61.09h17.97v8.38c.45.1.46-.15.68-.4.95-1.11,1.73-2.55,2.82-3.65,5.95-5.99,14.94-6.93,22.86-4.94,12.25,3.08,14.45,14.58,14.87,25.62.45,11.91-.36,24.12-.01,36.06Z"/>
</svg>